<svg width="1200" height="800" viewBox="0 0 1200 800" fill="none" xmlns="http://www.w3.org/2000/svg">
  <!-- Background gradients -->
  <rect width="1200" height="800" fill="#131A2E"/>
  
  <!-- Main Dashboard Panel -->
  <rect x="50" y="50" width="1100" height="700" rx="8" fill="#1B2539"/>
  
  <!-- Top navigation bar -->
  <rect x="50" y="50" width="1100" height="60" rx="8" fill="#232D45"/>
  <circle cx="100" cy="80" r="15" fill="#2FA781"/>
  <rect x="150" y="70" width="200" height="20" rx="4" fill="#2A3655"/>
  <rect x="950" y="70" width="150" height="20" rx="10" fill="#2A3655"/>
  
  <!-- Left sidebar -->
  <rect x="50" y="110" width="220" height="640" fill="#232D45"/>
  
  <!-- Sidebar menu items -->
  <rect x="70" y="150" width="180" height="30" rx="4" fill="#2FA781"/>
  <rect x="70" y="200" width="180" height="30" rx="4" fill="#2A3655"/>
  <rect x="70" y="250" width="180" height="30" rx="4" fill="#2A3655"/>
  <rect x="70" y="300" width="180" height="30" rx="4" fill="#2A3655"/>
  <rect x="70" y="350" width="180" height="30" rx="4" fill="#2A3655"/>
  
  <!-- Main content area -->
  <rect x="290" y="130" width="840" height="200" rx="8" fill="#232D45"/>
  
  <!-- Stats cards -->
  <rect x="310" y="150" width="180" height="160" rx="6" fill="#2A3655"/>
  <rect x="330" y="170" width="140" height="15" rx="2" fill="#3B4864"/>
  <rect x="330" y="200" width="80" height="30" rx="2" fill="#2FA781"/>
  <rect x="330" y="240" width="120" height="10" rx="2" fill="#3B4864"/>
  <rect x="330" y="260" width="100" height="10" rx="2" fill="#3B4864"/>
  
  <rect x="510" y="150" width="180" height="160" rx="6" fill="#2A3655"/>
  <rect x="530" y="170" width="140" height="15" rx="2" fill="#3B4864"/>
  <rect x="530" y="200" width="80" height="30" rx="2" fill="#E8C547"/>
  <rect x="530" y="240" width="120" height="10" rx="2" fill="#3B4864"/>
  <rect x="530" y="260" width="100" height="10" rx="2" fill="#3B4864"/>
  
  <rect x="710" y="150" width="180" height="160" rx="6" fill="#2A3655"/>
  <rect x="730" y="170" width="140" height="15" rx="2" fill="#3B4864"/>
  <rect x="730" y="200" width="80" height="30" rx="2" fill="#E55C5C"/>
  <rect x="730" y="240" width="120" height="10" rx="2" fill="#3B4864"/>
  <rect x="730" y="260" width="100" height="10" rx="2" fill="#3B4864"/>
  
  <rect x="910" y="150" width="180" height="160" rx="6" fill="#2A3655"/>
  <rect x="930" y="170" width="140" height="15" rx="2" fill="#3B4864"/>
  <rect x="930" y="200" width="80" height="30" rx="2" fill="#5E81F4"/>
  <rect x="930" y="240" width="120" height="10" rx="2" fill="#3B4864"/>
  <rect x="930" y="260" width="100" height="10" rx="2" fill="#3B4864"/>
  
  <!-- Chart area -->
  <rect x="290" y="350" width="520" height="300" rx="8" fill="#232D45"/>
  <rect x="310" y="370" width="140" height="20" rx="2" fill="#3B4864"/>
  
  <!-- Line chart placeholder -->
  <polyline points="330,550 370,500 410,520 450,480 490,450 530,480 570,440 610,460 650,420 690,430 730,400 770,420" stroke="#2FA781" stroke-width="3" fill="none"/>
  <polyline points="330,580 370,560 410,570 450,550 490,540 530,560 570,530 610,540 650,520 690,530 730,500 770,520" stroke="#5E81F4" stroke-width="3" fill="none"/>
  
  <!-- Dots for data points -->
  <circle cx="370" cy="500" r="4" fill="#2FA781"/>
  <circle cx="450" cy="480" r="4" fill="#2FA781"/>
  <circle cx="530" cy="480" r="4" fill="#2FA781"/>
  <circle cx="610" cy="460" r="4" fill="#2FA781"/>
  <circle cx="690" cy="430" r="4" fill="#2FA781"/>
  <circle cx="770" cy="420" r="4" fill="#2FA781"/>
  
  <circle cx="370" cy="560" r="4" fill="#5E81F4"/>
  <circle cx="450" cy="550" r="4" fill="#5E81F4"/>
  <circle cx="530" cy="560" r="4" fill="#5E81F4"/>
  <circle cx="610" cy="540" r="4" fill="#5E81F4"/>
  <circle cx="690" cy="530" r="4" fill="#5E81F4"/>
  <circle cx="770" cy="520" r="4" fill="#5E81F4"/>
  
  <!-- Table area -->
  <rect x="830" y="350" width="300" height="300" rx="8" fill="#232D45"/>
  <rect x="850" y="370" width="140" height="20" rx="2" fill="#3B4864"/>
  
  <!-- Table headers -->
  <rect x="850" y="410" width="260" height="30" rx="2" fill="#2A3655"/>
  
  <!-- Table rows -->
  <rect x="850" y="450" width="260" height="30" rx="2" fill="#232D45"/>
  <rect x="850" y="490" width="260" height="30" rx="2" fill="#2A3655"/>
  <rect x="850" y="530" width="260" height="30" rx="2" fill="#232D45"/>
  <rect x="850" y="570" width="260" height="30" rx="2" fill="#2A3655"/>
  <rect x="850" y="610" width="260" height="30" rx="2" fill="#232D45"/>
  
  <!-- Data visualization circles -->
  <circle cx="330" cy="680" r="25" fill="#2FA781" opacity="0.8"/>
  <circle cx="400" cy="680" r="20" fill="#5E81F4" opacity="0.8"/>
  <circle cx="460" cy="680" r="15" fill="#E8C547" opacity="0.8"/>
  <circle cx="510" cy="680" r="10" fill="#E55C5C" opacity="0.8"/>
  
  <!-- Legend -->
  <rect x="550" cy="665" width="60" height="10" rx="2" fill="#3B4864"/>
  <rect x="550" cy="685" width="40" height="10" rx="2" fill="#3B4864"/>
  <rect x="640" cy="665" width="60" height="10" rx="2" fill="#3B4864"/>
  <rect x="640" cy="685" width="40" height="10" rx="2" fill="#3B4864"/>
  <rect x="730" cy="665" width="60" height="10" rx="2" fill="#3B4864"/>
  <rect x="730" cy="685" width="40" height="10" rx="2" fill="#3B4864"/>
</svg> 